<svg id="Group_7" data-name="Group 7" xmlns="http://www.w3.org/2000/svg" width="230.612" height="53.751" viewBox="0 0 230.612 53.751">
  <path id="Path_116" data-name="Path 116" d="M48.515,47.061H1V54.75H53.106a3.069,3.069,0,0,0,3.06-3.06V26.823a3.678,3.678,0,0,0-3.06-3.52L8.69,16.724V8.69H231.611V1H4.06A3.071,3.071,0,0,0,1,4.06V20.4a3.677,3.677,0,0,0,3.06,3.519l44.455,6.543Z" transform="translate(-1 -1)" fill="#e69225"/>
  <path id="Path_117" data-name="Path 117" d="M137.995,26.553V50.808h-7.689V22.842a3.677,3.677,0,0,1,3.06-3.52L182.45,12.09a2.6,2.6,0,0,1,3.06,2.64V50.805h-7.689V20.7Z" transform="translate(45.102 2.943)" fill="#e69225"/>
  <path id="Path_118" data-name="Path 118" d="M131.209,17.78H95.363a6.565,6.565,0,0,0-6.543,6.543V48.769h7.69V39.931h33.551v8.838h7.689V24.323a6.588,6.588,0,0,0-6.541-6.543m-1.148,14.461H96.51V28.529a3.07,3.07,0,0,1,3.06-3.06h27.391a3.07,3.07,0,0,1,3.06,3.06v3.711Z" transform="translate(30.311 4.983)" fill="#e69225"/>
  <path id="Path_119" data-name="Path 119" d="M89.573,39.931a6.564,6.564,0,0,0,6.543-6.541V24.323a6.565,6.565,0,0,0-6.543-6.543H50.283a3.07,3.07,0,0,0-3.06,3.06V48.767h7.689V39.93H89.573ZM88.463,29.18a3.069,3.069,0,0,1-3.06,3.06H54.912v-6.81H85.4a3.069,3.069,0,0,1,3.06,3.06v.689Z" transform="translate(15.48 4.983)" fill="#e69225"/>
</svg>
